<?xml version="1.0" encoding="utf-8"?>
<!-- Generator: Adobe Illustrator 16.0.0, SVG Export Plug-In . SVG Version: 6.00 Build 0)  -->
<!DOCTYPE svg PUBLIC "-//W3C//DTD SVG 1.1//EN" "http://www.w3.org/Graphics/SVG/1.1/DTD/svg11.dtd">
<svg version="1.1" id="Layer_1" xmlns="http://www.w3.org/2000/svg" xmlns:xlink="http://www.w3.org/1999/xlink" x="0px" y="0px"
	 width="132px" height="81.333px" viewBox="0 0 132 81.333" enable-background="new 0 0 132 81.333" xml:space="preserve">
<g opacity="0.05">
	<path fill="#939598" d="M9.686,16.836l-1-2.794l12.988-4.646L34.662,4.75l0.999,2.794l0.999,2.792l2.598-0.929l2.598-0.929
		l1.999,5.587l1.998,5.586l-2.598,0.929l-2.598,0.929l1,2.794l0.999,2.792l-2.598,0.93l-2.598,0.929l0.999,2.793l1,2.794
		l-7.792,2.788l-7.792,2.788l-1-2.794l-1-2.793l5.195-1.858l5.195-1.859l-0.999-2.792l-1-2.794l2.598-0.929l2.597-0.929
		l-0.999-2.793l-0.999-2.793l-7.792,2.788l-7.792,2.788l0.999,2.793l1,2.793l-5.195,1.858L9.487,32.66l-1.999-5.586L5.49,21.487
		l2.598-0.929l2.598-0.929L9.686,16.836z M26.873,48.495l-1-2.793l7.793-2.788l7.792-2.788l0.999,2.793l1,2.794L35.664,48.5
		l-7.792,2.788L26.873,48.495z"/>
</g>
<g opacity="0.05">
	<path fill="#939598" d="M54.405,48.169l-0.621-1.733l8.062-2.885l8.062-2.885l0.621,1.734l0.619,1.732l1.613-0.578l1.612-0.576
		l1.241,3.469l1.24,3.468l-1.613,0.578l-1.611,0.576l0.62,1.732l0.62,1.734l-1.612,0.578l-1.612,0.576l0.62,1.734l0.62,1.734
		l-4.838,1.73l-4.837,1.73l-0.62-1.734l-0.62-1.734L65.197,58l3.225-1.154l-0.62-1.734l-0.621-1.734l1.613-0.576l1.612-0.576
		l-0.62-1.734l-0.62-1.734l-4.838,1.73l-4.837,1.73l0.62,1.734l0.62,1.734l-3.225,1.154l-3.226,1.152l-1.24-3.467l-1.241-3.469
		l1.612-0.576l1.612-0.578L54.405,48.169z M65.074,67.822l-0.62-1.734l4.837-1.73l4.837-1.73l0.621,1.734l0.62,1.734l-4.838,1.73
		l-4.837,1.73L65.074,67.822z"/>
</g>
<g opacity="0.05">
	<path fill="#939598" d="M81.774,19.511l-1.171-3.272l15.221-5.444l15.22-5.447l1.171,3.272l1.17,3.275l3.044-1.09l3.044-1.088
		l2.343,6.545l2.343,6.547l-3.044,1.09l-3.045,1.088l1.171,3.274l1.172,3.273l-3.044,1.087l-3.044,1.091l1.171,3.272l1.172,3.275
		l-9.133,3.267l-9.132,3.269l-1.173-3.275l-1.169-3.273l6.087-2.177l6.088-2.179l-1.172-3.272l-1.171-3.275l3.047-1.088l3.042-1.091
		l-1.171-3.272l-1.172-3.275l-9.131,3.269l-9.133,3.266l1.172,3.275l1.171,3.273l-6.089,2.178l-6.087,2.179l-2.343-6.548
		l-2.343-6.544l3.044-1.091l3.045-1.087L81.774,19.511z M101.915,56.612l-1.171-3.272l9.133-3.267l9.131-3.269l1.171,3.273
		l1.171,3.275l-9.133,3.266l-9.131,3.269L101.915,56.612z"/>
</g>
</svg>
