<?xml version="1.0" encoding="utf-8"?>
<!-- Generator: Adobe Illustrator 16.0.0, SVG Export Plug-In . SVG Version: 6.00 Build 0)  -->
<!DOCTYPE svg PUBLIC "-//W3C//DTD SVG 1.1//EN" "http://www.w3.org/Graphics/SVG/1.1/DTD/svg11.dtd">
<svg version="1.1" id="Layer_1" xmlns="http://www.w3.org/2000/svg" xmlns:xlink="http://www.w3.org/1999/xlink" x="0px" y="0px"
	 width="410px" height="187px" viewBox="0 0 410 187" enable-background="new 0 0 410 187" xml:space="preserve">
<polyline fill="#1C75BC" points="16.72,14.799 391.499,14.799 391.492,172.333 16.72,172.333 "/>
<rect x="27.925" y="26.005" fill="#010101" width="11.205" height="11.203"/>
<rect x="368.377" y="26.005" fill="#010101" width="11.203" height="11.203"/>
<polygon fill="#2B3990" points="365.842,3.596 340.907,3.596 315.964,3.596 291.029,3.596 291.029,3.596 266.095,3.596 
	241.153,3.596 216.219,3.596 216.219,3.596 191.282,3.596 166.343,3.596 141.408,3.596 141.406,3.596 116.471,3.596 91.531,3.596 
	66.597,3.596 66.594,3.596 41.659,3.596 16.72,3.596 16.72,14.799 41.659,14.799 66.594,14.799 66.597,14.799 91.531,14.799 
	116.471,14.799 141.406,14.799 141.408,14.799 166.343,14.799 191.282,14.799 216.219,14.799 216.219,14.799 241.153,14.799 
	266.095,14.799 291.029,14.799 291.029,14.799 315.964,14.799 340.907,14.799 365.842,14.799 390.783,14.799 390.783,3.596 "/>
<polygon fill="#2B3990" points="16.718,161.833 16.718,151.328 16.718,140.826 16.718,130.325 16.718,130.322 16.718,119.821 
	16.718,109.32 16.718,98.818 16.718,98.815 16.718,88.313 16.718,77.812 16.718,67.312 16.718,67.309 16.718,56.807 16.718,46.306 
	16.718,35.805 16.718,35.802 16.718,25.3 16.718,14.799 5.515,14.799 5.515,25.3 5.515,35.802 5.515,35.805 5.515,46.306 
	5.515,56.807 5.515,67.309 5.515,67.312 5.515,77.812 5.515,88.313 5.515,98.815 5.515,98.818 5.515,109.32 5.515,119.821 
	5.515,130.322 5.515,130.325 5.515,140.826 5.515,151.328 5.515,161.833 5.515,172.333 16.718,172.333 "/>
<rect x="368.377" y="150.456" fill="#010101" width="11.203" height="11.204"/>
<rect x="27.925" y="150.456" fill="#010101" width="11.205" height="11.204"/>
<g>
	<path fill="#EEEEEE" d="M61.297,86.165v-4.738h-4.738V62.472h4.738v-4.738h18.954v4.738h4.738v4.739h-9.477v-4.739h-9.477v18.954
		h9.477v-4.739h-4.738v-4.738h14.215v9.477h-4.738v4.738H61.297z"/>
	<path fill="#EEEEEE" d="M96.835,86.165v-4.738h-4.738V57.734h9.477v23.692h9.477V57.734h9.477v23.692h-4.738v4.738H96.835z"/>
	<path fill="#EEEEEE" d="M127.635,86.165V57.734h28.431v4.738h-18.954v4.739h14.215v4.738h-14.215v9.477h18.954v4.738H127.635z"/>
	<path fill="#EEEEEE" d="M163.174,86.165v-9.477h18.954v-4.738h-18.954v-9.477h4.738v-4.738h23.692v4.738h-18.954v4.739h14.215
		v4.738h4.738v9.477h-4.738v4.738H163.174z"/>
	<path fill="#EEEEEE" d="M198.712,86.165v-9.477h18.954v-4.738h-18.954v-9.477h4.738v-4.738h23.692v4.738h-18.954v4.739h14.215
		v4.738h4.738v9.477h-4.738v4.738H198.712z"/>
	<path fill="#EEEEEE" d="M255.573,86.165V62.472h-9.477v-4.738h28.431v4.738h-9.477v23.692H255.573z"/>
	<path fill="#EEEEEE" d="M281.635,86.165V57.734h9.477v9.477h9.477v-9.477h9.477v28.431h-9.477V71.949h-9.477v14.215H281.635z"/>
	<path fill="#EEEEEE" d="M317.173,86.165V57.734h28.431v4.738h-18.954v4.739h14.216v4.738h-14.216v9.477h18.954v4.738H317.173z"/>
	<path fill="#EEEEEE" d="M38.604,127.835v-4.341h-4.341v-17.362h4.341v-4.341h17.362v4.341h4.341v4.34h-8.681v-4.34h-8.682v17.362
		h8.682v-4.34h8.681v4.34h-4.341v4.341H38.604z"/>
	<path fill="#EEEEEE" d="M71.16,127.835v-4.341h-4.341v-17.362h4.341v-4.341h17.362v4.341h4.341v17.362h-4.341v4.341H71.16z
		 M84.182,123.494v-17.362H75.5v17.362H84.182z"/>
	<path fill="#EEEEEE" d="M99.374,127.835v-26.044h21.703v4.341h4.341v8.681h-4.341v8.681h4.341v4.341h-8.681v-8.681h-8.682v8.681
		H99.374z M116.736,114.813v-8.681h-8.682v8.681H116.736z"/>
	<path fill="#EEEEEE" d="M131.929,127.835v-26.044h21.703v4.341h4.341v8.681h-4.341v8.681h4.341v4.341h-8.681v-8.681h-8.682v8.681
		H131.929z M149.292,114.813v-8.681h-8.682v8.681H149.292z"/>
	<path fill="#EEEEEE" d="M164.483,127.835v-26.044h26.044v4.341h-17.363v4.34h13.022v4.341h-13.022v8.681h17.363v4.341H164.483z"/>
	<path fill="#EEEEEE" d="M197.039,127.835v-26.044h8.681v21.703h17.363v4.341H197.039z"/>
	<path fill="#EEEEEE" d="M229.594,127.835v-21.703h4.341v-4.341h17.362v4.341h4.341v21.703h-8.681v-8.681h-8.682v8.681H229.594z
		 M246.957,114.813v-8.681h-8.682v8.681H246.957z"/>
	<path fill="#EEEEEE" d="M270.83,127.835v-21.703h-8.681v-4.341h26.044v4.341h-8.681v21.703H270.83z"/>
	<path fill="#EEEEEE" d="M294.704,127.835v-26.044h8.681v26.044H294.704z"/>
	<path fill="#EEEEEE" d="M314.236,127.835v-4.341h-4.341v-17.362h4.341v-4.341h17.362v4.341h4.341v17.362h-4.341v4.341H314.236z
		 M327.258,123.494v-17.362h-8.681v17.362H327.258z"/>
	<path fill="#EEEEEE" d="M342.451,127.835v-26.044h21.703v4.341h4.341v21.703h-8.682v-21.703h-8.681v21.703H342.451z"/>
</g>
<rect x="16.72" y="171.866" fill="#010101" width="374.063" height="11.203"/>
<rect x="391.5" y="14.799" fill="#010101" width="11.203" height="158.064"/>
</svg>
